# xmcd CD database file
#
# Track frame offsets:
#	150
#	4030
#	32600
#	57349
#	79343
#	101402
#	121145
#	140601
#	159459
#	178362
#	193962
#	212964
#	229995
#	250176
#	252169
#	267808
#	284920
#	301430
#	314929
#	331562
#
# Disc length: 4500 seconds
#
# Revision: 1
# Processed by: cddbd v1.5.2PL0 Copyright (c) Steve Scherf et al.
# Submitted via: CDex 1.51
#
DISCID=2e119214
DTITLE=Junkie XL - Radio JXL: A Broadcast From The Computer Hell Cabin
DYEAR=2003
DGENRE=Electronic
TTITLE0=Intro 3pm
TTITLE1=Tennis
TTITLE2=Crusher (ft. Saffron)
TTITLE3=Don't Wake Up Policeman (ft. Peter Tosh and Friends)
TTITLE4=Reload (ft. Dave Gahan)
TTITLE5=Spirits (ft. Saffron)
TTITLE6=Angels (ft. Gary Numan)
TTITLE7=Perfect Blue Sky (ft. Robert Smith)
TTITLE8=Between These Walls (ft. Anouk)
TTITLE9=Access To The Excess (ft. Chuck D)
TTITLE10=Catch Up To My Step (ft. Solomon Burke)
TTITLE11=Never Alone (ft. Terry Hall)
TTITLE12=Logos (ft. Phil Mills)
TTITLE13=Configuring Audio System
TTITLE14=Nightmares (ft. Infusion)
TTITLE15=Beauty Never Fades (ft. Saffron)
TTITLE16=Rivers (ft. Harland)
TTITLE17=Aqua Man (ft. Infusion)
TTITLE18=Broken (ft. Grant Nicholas)
TTITLE19=JXL Radio Technical Support
EXTD=YEAR: 2003
EXTT0=
EXTT1=
EXTT2=
EXTT3=
EXTT4=
EXTT5=
EXTT6=
EXTT7=
EXTT8=
EXTT9=
EXTT10=
EXTT11=
EXTT12=
EXTT13=
EXTT14=
EXTT15=
EXTT16=
EXTT17=
EXTT18=
EXTT19=
PLAYORDER=
